inDegrees=yes
name=ik_lifting_orientations
DataType=double
version=3
OpenSimVersion=4.5-2024-01-10-34fd6af
endheader
time	pelvis_tilt	pelvis_list	pelvis_rotation	pelvis_tx	pelvis_ty	pelvis_tz	hip_flexion_r	hip_adduction_r	hip_rotation_r	knee_angle_r	knee_angle_r_beta	ankle_angle_r	subtalar_angle_r	mtp_angle_r	hip_flexion_l	hip_adduction_l	hip_rotation_l	knee_angle_l	knee_angle_l_beta	ankle_angle_l	subtalar_angle_l	mtp_angle_l	lumbar_extension	lumbar_bending	lumbar_rotation	arm_flex_r	arm_add_r	arm_rot_r	elbow_flex_r	pro_sup_r	wrist_flex_r	wrist_dev_r	arm_flex_l	arm_add_l	arm_rot_l	elbow_flex_l	pro_sup_l	wrist_flex_l	wrist_dev_l
0.02	-0.001998038972845416	-0.002770699954925346	-94.90888007536164	0	0.9399999998497812	0	42.00910678593853	-10.12463459668362	0	58.81992477686998	1.026601353131772	-4.975221045784958	0	0	42.00910678593853	-10.12463459668362	0	58.81992477686998	1.026601353131772	-4.975221045784958	0	0	-0.005255825426316578	-0.0003534192173918334	-0.0004253890186530245	-0.2337705983441731	-0.05283088383093267	-0.004904665534914282	0.4871409224176425	45.02490245204435	0	0	0	-10.56805465895832	0	76.12589030635239	45.02490245204435	0	0
0.03	-0.4627060846630193	-0.6572237303694769	-94.83272460867977	0	0.9399999998497812	0	42.00991879105212	-10.12451783191464	0	58.8201781738749	1.026605775743823	-4.975251263156131	0	0	42.00991879105212	-10.12451783191464	0	58.8201781738749	1.026605775743823	-4.975251263156131	0	0	-0.259703912170569	0.5173622828287636	-0.06791496206545845	-0.6709393926370625	-0.1685333282837096	-0.01796115533287388	0.4900747760850057	45.0248839621796	0	0	0	-10.56867460293393	0	76.12558509011618	45.0248839621796	0	0
0.04	0.8501953137063023	-1.556734114326333	-94.58917940458772	0	0.9399999998497812	0	42.01065381288102	-10.12441342864995	0	58.82040974024435	1.026609817339406	-4.975278214942736	0	0	42.01065381288102	-10.12441342864995	0	58.82040974024435	1.026609817339406	-4.975278214942736	0	0	-0.6144538874279523	-0.7536486140575489	-0.288160323915323	-1.077433320050772	-0.552980449018972	-0.02967136506958848	0.4239008188640618	45.02486739303501	0	0	0	-10.56923964694654	0	76.12530880254306	45.02486739303501	0	0
0.05	0.8664923761696199	-1.576506924973393	-94.58467646368078	0	0.9399999998497812	0	42.01094424181668	-10.1243713767244	0	58.82049979780007	1.02661138914027	-4.975289109106841	0	0	42.01094424181668	-10.1243713767244	0	58.82049979780007	1.02661138914027	-4.975289109106841	0	0	-0.608398267957499	-0.7923872006574347	-0.284800064317305	-1.100367500605164	-0.8083520530430099	-0.02845642510447594	0.3652185475927344	45.02486074127955	0	5.38806921148701e-36	0	-10.56946041005422	0	76.12519963803072	45.02486074127955	0	5.38806921148701e-36
0.06	0.8312978713013843	-1.565283659697708	-94.58476526388574	0	0.9399999998497812	0	42.01188775383133	-10.12423412018483	0	58.82079119768819	1.026616475027758	-4.97532469713105	0	0	42.01188775383133	-10.12423412018483	0	58.82079119768819	1.026616475027758	-4.97532469713105	0	0	-0.616645613535476	-0.7263675943171752	-0.2888714297967091	-1.100023861872089	-1.417645677298792	-0.03175793383888678	0.4558273860663079	45.02483904737735	0	0	0	-10.5701755970702	0	76.12484500082572	45.02483904737735	0	0
0.07000000000000001	0.8489913965347627	-1.583432637212515	-94.58138193893784	0	0.9399999998497812	0	42.01265014558003	-10.12412362149326	0	58.82102723598054	1.02662059467312	-4.975353321801283	0	0	42.01265014558003	-10.12412362149326	0	58.82102723598054	1.02662059467312	-4.975353321801283	0	0	-0.6538531181683103	-0.7622757355324704	-0.291241136297781	-2.02685045896355	-1.502531000695962	-0.05458771628416304	1.242833608965276	45.02482156968628	0	0	0	-10.57075456097424	0	76.12455843886733	45.02482156968628	0	0
0.08	1.414140703768954	-1.023297073877671	-95.35441511540236	0	0.9399999998497812	0	42.013386245581	-10.12402051001446	0	58.82126123280351	1.02662467868812	-4.975379851224945	0	0	42.013386245581	-10.12402051001446	0	58.82126123280351	1.02662467868812	-4.975379851224945	0	0	0.6788509370460248	-1.29335021912577	0.6730069344406441	-2.714675392026606	-1.463803921694282	-0.2230037809170205	1.185974364451889	45.0248051596922	0	0	0	-10.57132427037004	0	76.12428173787647	45.0248051596922	0	0
